# xmcd CD database file
#
# Track frame offsets:
#	150
#	14326
#	34382
#	48126
#	72953
#	103182
#	117602
#	132197
#	145311
#	170943
#	183147
#	196036
#	209198
#	224083
#	237851
#
# Disc length: 3348 seconds
#
# Revision: 2
# Processed by: cddbd v1.5.2PL0 Copyright (c) Steve Scherf et al.
# Submitted via: CDex 1.51
#
DISCID=ee0d120f
DTITLE=Louis Armstrong - Vol.10 - I've Got A Heart Full Of Rhythm
DYEAR=1900
DGENRE=Jazz
TTITLE0=I've Got A Heart Full Of Rhythm
TTITLE1=Basin Street Blues
TTITLE2=Give Me A Kiss To Build A Dream On
TTITLE3=Indiana
TTITLE4=New Orleans Function  a. Free As A Bird  b. Didn't He Ramble
TTITLE5=Can Anyone Explain ¿ (No, No, No)
TTITLE6=Sit Down, You're Rocking The Boat
TTITLE7=That's My Desire
TTITLE8=Way Down Yonder In New Orleans
TTITLE9=When It's Sleepy Time Down South
TTITLE10=Grooving
TTITLE11=Baby Don't You Cry
TTITLE12=Jodie Man
TTITLE13=I Wonder
TTITLE14=Linger In My Arms A Little Longer, Baby
EXTD=
EXTT0=
EXTT1=
EXTT2=
EXTT3=
EXTT4=
EXTT5=
EXTT6=
EXTT7=
EXTT8=
EXTT9=
EXTT10=
EXTT11=
EXTT12=
EXTT13=
EXTT14=
PLAYORDER=
